<?xml version="1.0" standalone="no"?>
<!DOCTYPE svg PUBLIC "-//W3C//DTD SVG 20010904//EN"
 "http://www.w3.org/TR/2001/REC-SVG-20010904/DTD/svg10.dtd">
<svg version="1.0" xmlns="http://www.w3.org/2000/svg"
 width="171.000000pt" height="147.000000pt" viewBox="0 0 171.000000 147.000000"
 preserveAspectRatio="xMidYMid meet">
<metadata>
Created by potrace 1.10, written by Peter Selinger 2001-2011
</metadata>
<g transform="translate(0.000000,147.000000) scale(0.050000,-0.050000)"
fill="#ffffff" stroke="none">
<path d="M1361 2901 c-12 -21 -21 -51 -21 -67 0 -22 -25 -29 -98 -28 -54 1
-113 -10 -130 -24 -16 -14 -39 -20 -50 -13 -11 6 -35 -15 -55 -49 -20 -33 -42
-60 -50 -60 -8 0 -26 -11 -41 -25 -15 -14 -45 -35 -67 -48 -21 -13 -37 -33
-34 -45 3 -12 -4 -22 -15 -22 -11 0 -20 8 -20 18 0 9 -17 22 -37 27 -29 8 -35
0 -27 -38 5 -25 17 -41 28 -34 11 6 9 -9 -5 -34 -22 -42 -26 -43 -49 -13 -31
43 -58 44 -42 2 6 -17 -11 -69 -38 -116 -49 -83 -67 -192 -33 -192 10 0 15
-20 13 -45 -3 -25 -6 -56 -7 -70 -4 -36 -43 -31 -43 6 0 18 -10 25 -22 18 -12
-7 -17 -31 -11 -52 8 -32 5 -35 -19 -15 -24 19 -27 18 -16 -9 7 -18 2 -33 -10
-33 -12 0 -22 9 -22 20 0 11 -14 20 -31 20 -18 0 -25 -10 -18 -22 8 -12 3 -29
-10 -37 -64 -40 -120 -755 -61 -791 11 -7 20 -47 20 -90 0 -43 9 -83 20 -90
13 -8 13 -25 0 -50 -21 -38 -8 -100 20 -100 9 0 21 11 27 25 5 14 11 0 11 -31
1 -30 16 -60 32 -67 17 -6 30 -28 30 -49 0 -21 8 -38 17 -38 10 0 42 -36 71
-81 31 -47 63 -75 76 -67 13 9 17 5 8 -9 -9 -14 -1 -23 20 -23 32 0 32 -3 -2
-40 -20 -22 -26 -40 -14 -40 12 0 27 9 34 20 18 29 73 25 66 -6 -7 -31 74
-138 92 -120 7 7 31 -7 53 -31 23 -24 49 -39 59 -33 10 6 28 -7 39 -29 18 -33
16 -38 -9 -28 -19 7 -30 0 -30 -22 0 -27 7 -29 42 -10 55 29 150 8 121 -28
-26 -31 38 -39 108 -13 38 15 45 12 36 -11 -7 -18 1 -29 21 -29 18 0 32 -9 32
-20 0 -13 137 -20 370 -20 233 0 370 7 370 20 0 11 27 20 60 20 33 0 60 -9 60
-20 0 -11 27 -20 60 -20 33 0 60 8 60 18 0 9 20 24 45 33 86 29 107 39 241
118 86 51 131 90 125 106 -6 15 -3 22 7 16 19 -12 123 63 118 85 -2 8 35 55
82 104 359 377 470 1174 208 1495 -38 47 -76 81 -85 75 -23 -14 -41 40 -41
120 0 95 -26 153 -103 231 -37 37 -56 60 -42 52 49 -30 24 11 -49 79 -40 38
-85 65 -99 60 -14 -6 -21 1 -15 16 9 25 -229 192 -273 192 -11 0 -19 10 -19
22 0 16 -9 15 -30 -2 -24 -20 -30 -19 -30 4 0 15 -31 39 -70 53 -38 14 -70 33
-70 43 0 42 -736 24 -750 -19 -17 -53 -58 -54 -44 -1 13 51 -18 52 -45 1z
m771 -197 c288 -91 778 -469 681 -526 -21 -12 -65 -47 -98 -77 l-60 -54 -144
144 c-204 203 -538 347 -760 325 l-61 -6 -5 -1017 -5 -1017 -95 14 c-147 22
-144 10 -150 437 l-5 383 -205 6 c-113 3 -205 1 -205 -4 0 -4 27 -65 60 -135
75 -159 76 -153 -21 -248 -92 -90 -85 -95 -186 111 -100 206 -96 581 9 801 91
190 241 346 422 440 l135 69 5 190 6 190 80 13 c139 24 471 2 602 -39z m-812
-143 l0 -119 -145 -94 c-80 -51 -187 -138 -238 -193 l-93 -100 -82 57 c-44 32
-81 70 -82 84 -1 75 360 382 530 450 112 45 110 47 110 -85z m704 -221 c577
-178 838 -776 575 -1320 -89 -183 -85 -181 -173 -96 -79 77 -81 99 -15 243 68
148 62 154 -167 148 l-194 -5 0 -215 c0 -118 -3 -215 -6 -215 -4 0 -55 34
-114 75 l-108 75 -1 675 c-1 773 -23 705 203 635z m-1375 -301 c-6 -10 3 -13
20 -7 46 18 38 -3 -15 -38 -45 -29 -46 -28 -38 28 5 32 17 53 27 46 10 -6 13
-19 6 -29z m-32 -197 l87 -77 -22 -103 c-131 -610 304 -1216 936 -1305 191
-27 210 -17 195 108 -12 95 7 94 128 -8 97 -82 99 -85 99 -198 0 -138 -1 -138
-290 -139 -884 -1 -1478 769 -1278 1657 38 166 32 164 145 65z m2414 -77 c155
-630 -171 -1292 -761 -1545 -105 -45 -108 -43 -95 104 l10 113 118 73 c410
253 599 721 489 1210 -10 42 4 62 83 124 122 95 112 100 156 -79z m-781 -765
c7 -11 3 -20 -8 -20 -11 0 -16 -13 -10 -29 7 -17 25 -23 45 -16 29 11 30 8 5
-22 -35 -43 -49 -147 -22 -163 11 -7 20 8 20 34 1 41 35 121 42 96 30 -104
-29 -199 -100 -161 -36 19 -42 17 -42 -19 0 -24 -20 -50 -50 -64 -27 -12 -50
-34 -50 -49 0 -30 -4 -32 -45 -16 -19 7 -26 29 -20 60 9 47 7 49 -45 29 -71
-27 -80 -16 -46 53 22 46 39 56 84 51 30 -3 51 2 45 11 -15 25 50 77 87 70 37
-7 80 81 66 135 -11 41 22 56 44 20z"/>
<path d="M1316 2008 c-125 -93 -276 -330 -276 -431 0 -9 90 -17 200 -17 l200
0 0 215 c0 118 6 235 13 260 17 65 -26 57 -137 -27z"/>
<path d="M2044 1815 l6 -265 204 0 204 0 -11 50 c-40 180 -287 480 -395 480
-7 0 -11 -119 -8 -265z"/>
</g>
</svg>
